<mxfile host="app.diagrams.net" agent="Mozilla/5.0 (Macintosh; Intel Mac OS X 10_15_7) AppleWebKit/537.36 (KHTML, like Gecko) Chrome/131.0.0.0 Safari/537.36" version="25.0.3">
  <diagram name="Page-1" id="rznSuXB1wHHOvqeHv0t4">
    <mxGraphModel dx="1078" dy="667" grid="1" gridSize="10" guides="1" tooltips="1" connect="1" arrows="1" fold="1" page="1" pageScale="1" pageWidth="850" pageHeight="1100" math="0" shadow="0">
      <root>
        <mxCell id="0" />
        <mxCell id="1" parent="0" />
        <mxCell id="OEbh8IiqhW5LueFlaGDv-1" value="&lt;div style=&quot;text-align: left;&quot;&gt;&lt;b style=&quot;background-color: initial;&quot;&gt;Requirements&lt;/b&gt;&lt;/div&gt;&lt;div style=&quot;text-align: left;&quot;&gt;&lt;b&gt;Functional&lt;/b&gt;&lt;/div&gt;&lt;div style=&quot;text-align: left;&quot;&gt;- Search for events&lt;/div&gt;&lt;div style=&quot;text-align: left;&quot;&gt;- Show events&lt;/div&gt;&lt;div style=&quot;text-align: left;&quot;&gt;- Book Tickets&lt;/div&gt;&lt;div style=&quot;text-align: left;&quot;&gt;&lt;b&gt;Non-functional&lt;/b&gt;&lt;/div&gt;&lt;div style=&quot;text-align: left;&quot;&gt;&amp;nbsp;- consistency for booking&lt;/div&gt;&lt;div style=&quot;text-align: left;&quot;&gt;- availability for search &amp;amp; View events&lt;/div&gt;&lt;div style=&quot;text-align: left;&quot;&gt;- Read &amp;gt;&amp;gt; write&lt;/div&gt;&lt;div style=&quot;text-align: left;&quot;&gt;- scalability to handle surges from popular events&lt;/div&gt;&lt;div style=&quot;text-align: left;&quot;&gt;&lt;b&gt;Out of scope&lt;/b&gt;&lt;/div&gt;&lt;div style=&quot;text-align: left;&quot;&gt;- GDPR&lt;/div&gt;&lt;div style=&quot;text-align: left;&quot;&gt;- fault tolerance&lt;/div&gt;&lt;div style=&quot;text-align: left;&quot;&gt;&lt;br&gt;&lt;/div&gt;&lt;div style=&quot;text-align: left;&quot;&gt;&lt;b&gt;Core Entities&lt;/b&gt;&lt;/div&gt;&lt;div style=&quot;text-align: left;&quot;&gt;&lt;b&gt;-&amp;nbsp;&lt;/b&gt;&lt;span style=&quot;background-color: initial;&quot;&gt;Event&lt;/span&gt;&lt;b style=&quot;background-color: initial;&quot;&gt;&amp;nbsp;&lt;/b&gt;&lt;/div&gt;&lt;div style=&quot;text-align: left;&quot;&gt;- Venue&lt;/div&gt;&lt;div style=&quot;text-align: left;&quot;&gt;- Performer&lt;/div&gt;&lt;div style=&quot;text-align: left;&quot;&gt;- Ticket&lt;/div&gt;&lt;div style=&quot;text-align: left;&quot;&gt;&lt;br&gt;&lt;/div&gt;&lt;div style=&quot;text-align: left;&quot;&gt;&lt;b&gt;API&lt;/b&gt;&lt;/div&gt;&lt;div style=&quot;text-align: left;&quot;&gt;&lt;span style=&quot;background-color: initial;&quot;&gt;- /GET /event/:eventId -&amp;gt;&amp;nbsp;&lt;/span&gt;&lt;/div&gt;&lt;div style=&quot;text-align: left;&quot;&gt;&lt;span style=&quot;background-color: initial;&quot;&gt;Event &amp;amp; Venue &amp;amp; Performer &amp;amp; Ticket[]&amp;nbsp;&lt;/span&gt;&lt;/div&gt;&lt;div style=&quot;text-align: left;&quot;&gt;&lt;span style=&quot;background-color: initial;&quot;&gt;&lt;br&gt;&lt;/span&gt;&lt;/div&gt;&lt;div style=&quot;text-align: left;&quot;&gt;&lt;span style=&quot;background-color: initial;&quot;&gt;- /GET /search?term={term}&amp;amp;location={location}&amp;amp;date={date}&lt;/span&gt;&lt;/div&gt;&lt;div style=&quot;text-align: left;&quot;&gt;&lt;span style=&quot;background-color: initial;&quot;&gt;partial&amp;lt;Event&amp;gt;[]&lt;/span&gt;&lt;/div&gt;&lt;div style=&quot;text-align: left;&quot;&gt;&lt;span style=&quot;background-color: initial;&quot;&gt;&lt;br&gt;&lt;/span&gt;&lt;/div&gt;&lt;div style=&quot;text-align: left;&quot;&gt;&lt;span style=&quot;background-color: initial;&quot;&gt;- POST /booking/reserve&lt;/span&gt;&lt;/div&gt;&lt;div style=&quot;text-align: left;&quot;&gt;&lt;span style=&quot;background-color: initial;&quot;&gt;headerL jwt | sessionToken&lt;/span&gt;&lt;/div&gt;&lt;div style=&quot;text-align: left;&quot;&gt;&lt;span style=&quot;background-color: initial;&quot;&gt;body { ticketId }&lt;/span&gt;&lt;/div&gt;&lt;div style=&quot;text-align: left;&quot;&gt;&lt;span style=&quot;background-color: initial;&quot;&gt;&lt;br&gt;&lt;/span&gt;&lt;/div&gt;&lt;div style=&quot;text-align: left;&quot;&gt;&lt;span style=&quot;background-color: initial;&quot;&gt;POST /booking/confirm&lt;/span&gt;&lt;/div&gt;&lt;div style=&quot;text-align: left;&quot;&gt;&lt;div&gt;&lt;span style=&quot;background-color: initial;&quot;&gt;header jwt | sessionToken&lt;/span&gt;&lt;/div&gt;&lt;div&gt;body { ticketId, paymentDetails (stripe) }&lt;/div&gt;&lt;/div&gt;&lt;div style=&quot;text-align: left;&quot;&gt;&lt;span style=&quot;background-color: initial;&quot;&gt;&lt;br&gt;&lt;/span&gt;&lt;/div&gt;&lt;div&gt;&lt;br&gt;&lt;/div&gt;" style="text;html=1;align=center;verticalAlign=middle;resizable=0;points=[];autosize=1;strokeColor=none;fillColor=none;" vertex="1" parent="1">
          <mxGeometry x="40" y="40" width="350" height="530" as="geometry" />
        </mxCell>
        <mxCell id="OEbh8IiqhW5LueFlaGDv-2" value="&lt;b&gt;HighLevel Design&lt;/b&gt;" style="text;html=1;align=center;verticalAlign=middle;resizable=0;points=[];autosize=1;strokeColor=none;fillColor=none;" vertex="1" parent="1">
          <mxGeometry x="634" y="20" width="120" height="30" as="geometry" />
        </mxCell>
        <mxCell id="OEbh8IiqhW5LueFlaGDv-4" style="edgeStyle=orthogonalEdgeStyle;rounded=0;orthogonalLoop=1;jettySize=auto;html=1;exitX=1;exitY=1;exitDx=0;exitDy=0;exitPerimeter=0;entryX=0;entryY=0.5;entryDx=0;entryDy=0;startArrow=classicThin;startFill=1;" edge="1" parent="1" source="OEbh8IiqhW5LueFlaGDv-3" target="OEbh8IiqhW5LueFlaGDv-5">
          <mxGeometry relative="1" as="geometry">
            <mxPoint x="630" y="245" as="targetPoint" />
            <Array as="points">
              <mxPoint x="580" y="272" />
              <mxPoint x="580" y="474" />
            </Array>
          </mxGeometry>
        </mxCell>
        <mxCell id="OEbh8IiqhW5LueFlaGDv-78" value="reserve&lt;div&gt;(ticketId)&lt;/div&gt;&lt;div&gt;confirm(ticketId,&amp;nbsp;&lt;/div&gt;&lt;div&gt;paymentDetails)&lt;/div&gt;" style="edgeLabel;html=1;align=center;verticalAlign=middle;resizable=0;points=[];" vertex="1" connectable="0" parent="OEbh8IiqhW5LueFlaGDv-4">
          <mxGeometry x="-0.28" y="-2" relative="1" as="geometry">
            <mxPoint x="13" y="1" as="offset" />
          </mxGeometry>
        </mxCell>
        <mxCell id="OEbh8IiqhW5LueFlaGDv-21" style="rounded=0;orthogonalLoop=1;jettySize=auto;html=1;exitX=1;exitY=0.25;exitDx=0;exitDy=0;exitPerimeter=0;startArrow=classicThin;startFill=1;" edge="1" parent="1" source="OEbh8IiqhW5LueFlaGDv-3" target="OEbh8IiqhW5LueFlaGDv-8">
          <mxGeometry relative="1" as="geometry" />
        </mxCell>
        <mxCell id="OEbh8IiqhW5LueFlaGDv-98" style="edgeStyle=orthogonalEdgeStyle;rounded=0;orthogonalLoop=1;jettySize=auto;html=1;exitX=0.5;exitY=1;exitDx=0;exitDy=0;exitPerimeter=0;" edge="1" parent="1" source="OEbh8IiqhW5LueFlaGDv-3" target="OEbh8IiqhW5LueFlaGDv-95">
          <mxGeometry relative="1" as="geometry">
            <mxPoint x="515" y="490" as="targetPoint" />
          </mxGeometry>
        </mxCell>
        <mxCell id="OEbh8IiqhW5LueFlaGDv-3" value="API Gateway" style="sketch=0;points=[[0,0,0],[0.25,0,0],[0.5,0,0],[0.75,0,0],[1,0,0],[0,1,0],[0.25,1,0],[0.5,1,0],[0.75,1,0],[1,1,0],[0,0.25,0],[0,0.5,0],[0,0.75,0],[1,0.25,0],[1,0.5,0],[1,0.75,0]];outlineConnect=0;fontColor=#232F3E;fillColor=#E7157B;strokeColor=#ffffff;dashed=0;verticalLabelPosition=bottom;verticalAlign=top;align=center;html=1;fontSize=12;fontStyle=0;aspect=fixed;shape=mxgraph.aws4.resourceIcon;resIcon=mxgraph.aws4.api_gateway;" vertex="1" parent="1">
          <mxGeometry x="490" y="222" width="50" height="50" as="geometry" />
        </mxCell>
        <mxCell id="OEbh8IiqhW5LueFlaGDv-5" value="Booking" style="shape=ellipse;fillColor=#A56EFF;aspect=fixed;resizable=0;labelPosition=center;verticalLabelPosition=bottom;align=center;verticalAlign=top;strokeColor=none;fontSize=14;" vertex="1" parent="1">
          <mxGeometry x="680" y="450" width="48" height="48" as="geometry" />
        </mxCell>
        <mxCell id="OEbh8IiqhW5LueFlaGDv-6" value="" style="fillColor=#ffffff;strokeColor=none;dashed=0;outlineConnect=0;html=1;labelPosition=center;verticalLabelPosition=bottom;verticalAlign=top;part=1;movable=0;resizable=0;rotatable=0;shape=mxgraph.ibm_cloud.microservices--1" vertex="1" parent="OEbh8IiqhW5LueFlaGDv-5">
          <mxGeometry width="24" height="24" relative="1" as="geometry">
            <mxPoint x="12" y="12" as="offset" />
          </mxGeometry>
        </mxCell>
        <mxCell id="OEbh8IiqhW5LueFlaGDv-28" style="edgeStyle=orthogonalEdgeStyle;rounded=0;orthogonalLoop=1;jettySize=auto;html=1;exitX=0.5;exitY=0;exitDx=0;exitDy=0;startArrow=classic;startFill=1;" edge="1" parent="1" source="OEbh8IiqhW5LueFlaGDv-8" target="OEbh8IiqhW5LueFlaGDv-27">
          <mxGeometry relative="1" as="geometry" />
        </mxCell>
        <mxCell id="OEbh8IiqhW5LueFlaGDv-8" value="Search" style="shape=ellipse;fillColor=#A56EFF;aspect=fixed;resizable=0;labelPosition=center;verticalLabelPosition=bottom;align=center;verticalAlign=top;strokeColor=none;fontSize=14;" vertex="1" parent="1">
          <mxGeometry x="670" y="130" width="48" height="48" as="geometry" />
        </mxCell>
        <mxCell id="OEbh8IiqhW5LueFlaGDv-9" value="" style="fillColor=#ffffff;strokeColor=none;dashed=0;outlineConnect=0;html=1;labelPosition=center;verticalLabelPosition=bottom;verticalAlign=top;part=1;movable=0;resizable=0;rotatable=0;shape=mxgraph.ibm_cloud.microservices--1" vertex="1" parent="OEbh8IiqhW5LueFlaGDv-8">
          <mxGeometry width="24" height="24" relative="1" as="geometry">
            <mxPoint x="12" y="12" as="offset" />
          </mxGeometry>
        </mxCell>
        <mxCell id="OEbh8IiqhW5LueFlaGDv-19" value="Event CRUD service" style="shape=ellipse;fillColor=#A56EFF;aspect=fixed;resizable=0;labelPosition=center;verticalLabelPosition=bottom;align=center;verticalAlign=top;strokeColor=none;fontSize=14;" vertex="1" parent="1">
          <mxGeometry x="670" y="210" width="48" height="48" as="geometry" />
        </mxCell>
        <mxCell id="OEbh8IiqhW5LueFlaGDv-20" value="" style="fillColor=#ffffff;strokeColor=none;dashed=0;outlineConnect=0;html=1;labelPosition=center;verticalLabelPosition=bottom;verticalAlign=top;part=1;movable=0;resizable=0;rotatable=0;shape=mxgraph.ibm_cloud.microservices--1" vertex="1" parent="OEbh8IiqhW5LueFlaGDv-19">
          <mxGeometry width="24" height="24" relative="1" as="geometry">
            <mxPoint x="12" y="12" as="offset" />
          </mxGeometry>
        </mxCell>
        <mxCell id="OEbh8IiqhW5LueFlaGDv-22" style="rounded=0;orthogonalLoop=1;jettySize=auto;html=1;exitX=1;exitY=0.5;exitDx=0;exitDy=0;exitPerimeter=0;entryX=0;entryY=0.667;entryDx=0;entryDy=0;entryPerimeter=0;startArrow=classicThin;startFill=1;" edge="1" parent="1" source="OEbh8IiqhW5LueFlaGDv-3" target="OEbh8IiqhW5LueFlaGDv-19">
          <mxGeometry relative="1" as="geometry" />
        </mxCell>
        <mxCell id="OEbh8IiqhW5LueFlaGDv-29" style="edgeStyle=orthogonalEdgeStyle;rounded=0;orthogonalLoop=1;jettySize=auto;html=1;exitX=0.5;exitY=0;exitDx=0;exitDy=0;exitPerimeter=0;entryX=0.5;entryY=1;entryDx=0;entryDy=0;entryPerimeter=0;" edge="1" parent="1" source="OEbh8IiqhW5LueFlaGDv-23" target="OEbh8IiqhW5LueFlaGDv-27">
          <mxGeometry relative="1" as="geometry">
            <mxPoint x="930" y="150" as="targetPoint" />
          </mxGeometry>
        </mxCell>
        <mxCell id="OEbh8IiqhW5LueFlaGDv-92" value="CDC" style="edgeLabel;html=1;align=center;verticalAlign=middle;resizable=0;points=[];" vertex="1" connectable="0" parent="OEbh8IiqhW5LueFlaGDv-29">
          <mxGeometry x="-0.0526" y="-1" relative="1" as="geometry">
            <mxPoint as="offset" />
          </mxGeometry>
        </mxCell>
        <mxCell id="OEbh8IiqhW5LueFlaGDv-23" value="postgres DB" style="shape=cylinder3;whiteSpace=wrap;html=1;boundedLbl=1;backgroundOutline=1;size=15;" vertex="1" parent="1">
          <mxGeometry x="895" y="206" width="60" height="80" as="geometry" />
        </mxCell>
        <mxCell id="OEbh8IiqhW5LueFlaGDv-25" style="edgeStyle=orthogonalEdgeStyle;rounded=0;orthogonalLoop=1;jettySize=auto;html=1;exitX=1;exitY=0.5;exitDx=0;exitDy=0;entryX=0.5;entryY=1;entryDx=0;entryDy=0;entryPerimeter=0;startArrow=classicThin;startFill=1;" edge="1" parent="1" source="OEbh8IiqhW5LueFlaGDv-5" target="OEbh8IiqhW5LueFlaGDv-23">
          <mxGeometry relative="1" as="geometry" />
        </mxCell>
        <mxCell id="OEbh8IiqhW5LueFlaGDv-27" value="" style="sketch=0;points=[[0,0,0],[0.25,0,0],[0.5,0,0],[0.75,0,0],[1,0,0],[0,1,0],[0.25,1,0],[0.5,1,0],[0.75,1,0],[1,1,0],[0,0.25,0],[0,0.5,0],[0,0.75,0],[1,0.25,0],[1,0.5,0],[1,0.75,0]];outlineConnect=0;fontColor=#232F3E;fillColor=#8C4FFF;strokeColor=#ffffff;dashed=0;verticalLabelPosition=bottom;verticalAlign=top;align=center;html=1;fontSize=12;fontStyle=0;aspect=fixed;shape=mxgraph.aws4.resourceIcon;resIcon=mxgraph.aws4.elasticsearch_service;" vertex="1" parent="1">
          <mxGeometry x="900" y="80" width="50" height="50" as="geometry" />
        </mxCell>
        <mxCell id="OEbh8IiqhW5LueFlaGDv-30" value="" style="image;sketch=0;aspect=fixed;html=1;points=[];align=center;fontSize=12;image=img/lib/mscae/Cache_Redis_Product.svg;" vertex="1" parent="1">
          <mxGeometry x="580" y="88" width="50" height="42" as="geometry" />
        </mxCell>
        <mxCell id="OEbh8IiqhW5LueFlaGDv-31" style="edgeStyle=orthogonalEdgeStyle;rounded=0;orthogonalLoop=1;jettySize=auto;html=1;exitX=0;exitY=0;exitDx=0;exitDy=0;entryX=1.06;entryY=0.452;entryDx=0;entryDy=0;entryPerimeter=0;" edge="1" parent="1" source="OEbh8IiqhW5LueFlaGDv-8" target="OEbh8IiqhW5LueFlaGDv-30">
          <mxGeometry relative="1" as="geometry" />
        </mxCell>
        <mxCell id="OEbh8IiqhW5LueFlaGDv-33" value="" style="points=[[0.03,0.03,0],[0.5,0,0],[0.97,0.03,0],[1,0.4,0],[0.97,0.745,0],[0.5,1,0],[0.03,0.745,0],[0,0.4,0]];verticalLabelPosition=bottom;sketch=0;html=1;verticalAlign=top;aspect=fixed;align=center;pointerEvents=1;shape=mxgraph.cisco19.workstation;fillColor=#005073;strokeColor=none;" vertex="1" parent="1">
          <mxGeometry x="350" y="232" width="50" height="40" as="geometry" />
        </mxCell>
        <mxCell id="OEbh8IiqhW5LueFlaGDv-34" style="edgeStyle=orthogonalEdgeStyle;rounded=0;orthogonalLoop=1;jettySize=auto;html=1;exitX=1;exitY=0.4;exitDx=0;exitDy=0;exitPerimeter=0;entryX=0;entryY=0.5;entryDx=0;entryDy=0;entryPerimeter=0;" edge="1" parent="1" source="OEbh8IiqhW5LueFlaGDv-33" target="OEbh8IiqhW5LueFlaGDv-3">
          <mxGeometry relative="1" as="geometry">
            <mxPoint x="410" y="247" as="sourcePoint" />
          </mxGeometry>
        </mxCell>
        <mxCell id="OEbh8IiqhW5LueFlaGDv-93" value="CDN" style="edgeLabel;html=1;align=center;verticalAlign=middle;resizable=0;points=[];" vertex="1" connectable="0" parent="OEbh8IiqhW5LueFlaGDv-34">
          <mxGeometry x="-0.1799" y="-1" relative="1" as="geometry">
            <mxPoint as="offset" />
          </mxGeometry>
        </mxCell>
        <mxCell id="OEbh8IiqhW5LueFlaGDv-35" value="Authentication&lt;div&gt;RateLimit&lt;/div&gt;&lt;div&gt;Routing&lt;/div&gt;" style="text;html=1;align=center;verticalAlign=middle;resizable=0;points=[];autosize=1;strokeColor=none;fillColor=none;" vertex="1" parent="1">
          <mxGeometry x="420" y="301" width="100" height="60" as="geometry" />
        </mxCell>
        <mxCell id="OEbh8IiqhW5LueFlaGDv-54" value="Event" style="swimlane;fontStyle=0;childLayout=stackLayout;horizontal=1;startSize=30;horizontalStack=0;resizeParent=1;resizeParentMax=0;resizeLast=0;collapsible=1;marginBottom=0;whiteSpace=wrap;html=1;" vertex="1" parent="1">
          <mxGeometry x="1000" y="80" width="140" height="210" as="geometry" />
        </mxCell>
        <mxCell id="OEbh8IiqhW5LueFlaGDv-58" value="id" style="text;strokeColor=none;fillColor=none;align=left;verticalAlign=middle;spacingLeft=4;spacingRight=4;overflow=hidden;points=[[0,0.5],[1,0.5]];portConstraint=eastwest;rotatable=0;whiteSpace=wrap;html=1;" vertex="1" parent="OEbh8IiqhW5LueFlaGDv-54">
          <mxGeometry y="30" width="140" height="30" as="geometry" />
        </mxCell>
        <mxCell id="OEbh8IiqhW5LueFlaGDv-55" value="name" style="text;strokeColor=none;fillColor=none;align=left;verticalAlign=middle;spacingLeft=4;spacingRight=4;overflow=hidden;points=[[0,0.5],[1,0.5]];portConstraint=eastwest;rotatable=0;whiteSpace=wrap;html=1;" vertex="1" parent="OEbh8IiqhW5LueFlaGDv-54">
          <mxGeometry y="60" width="140" height="30" as="geometry" />
        </mxCell>
        <mxCell id="OEbh8IiqhW5LueFlaGDv-56" value="description" style="text;strokeColor=none;fillColor=none;align=left;verticalAlign=middle;spacingLeft=4;spacingRight=4;overflow=hidden;points=[[0,0.5],[1,0.5]];portConstraint=eastwest;rotatable=0;whiteSpace=wrap;html=1;" vertex="1" parent="OEbh8IiqhW5LueFlaGDv-54">
          <mxGeometry y="90" width="140" height="30" as="geometry" />
        </mxCell>
        <mxCell id="OEbh8IiqhW5LueFlaGDv-57" value="performerId" style="text;strokeColor=none;fillColor=none;align=left;verticalAlign=middle;spacingLeft=4;spacingRight=4;overflow=hidden;points=[[0,0.5],[1,0.5]];portConstraint=eastwest;rotatable=0;whiteSpace=wrap;html=1;" vertex="1" parent="OEbh8IiqhW5LueFlaGDv-54">
          <mxGeometry y="120" width="140" height="30" as="geometry" />
        </mxCell>
        <mxCell id="OEbh8IiqhW5LueFlaGDv-59" value="tickets []" style="text;strokeColor=none;fillColor=none;align=left;verticalAlign=middle;spacingLeft=4;spacingRight=4;overflow=hidden;points=[[0,0.5],[1,0.5]];portConstraint=eastwest;rotatable=0;whiteSpace=wrap;html=1;" vertex="1" parent="OEbh8IiqhW5LueFlaGDv-54">
          <mxGeometry y="150" width="140" height="30" as="geometry" />
        </mxCell>
        <mxCell id="OEbh8IiqhW5LueFlaGDv-60" value="venueId" style="text;strokeColor=none;fillColor=none;align=left;verticalAlign=middle;spacingLeft=4;spacingRight=4;overflow=hidden;points=[[0,0.5],[1,0.5]];portConstraint=eastwest;rotatable=0;whiteSpace=wrap;html=1;" vertex="1" parent="OEbh8IiqhW5LueFlaGDv-54">
          <mxGeometry y="180" width="140" height="30" as="geometry" />
        </mxCell>
        <mxCell id="OEbh8IiqhW5LueFlaGDv-61" value="Venue" style="swimlane;fontStyle=0;childLayout=stackLayout;horizontal=1;startSize=30;horizontalStack=0;resizeParent=1;resizeParentMax=0;resizeLast=0;collapsible=1;marginBottom=0;whiteSpace=wrap;html=1;" vertex="1" parent="1">
          <mxGeometry x="1180" y="80" width="140" height="120" as="geometry" />
        </mxCell>
        <mxCell id="OEbh8IiqhW5LueFlaGDv-62" value="id" style="text;strokeColor=none;fillColor=none;align=left;verticalAlign=middle;spacingLeft=4;spacingRight=4;overflow=hidden;points=[[0,0.5],[1,0.5]];portConstraint=eastwest;rotatable=0;whiteSpace=wrap;html=1;" vertex="1" parent="OEbh8IiqhW5LueFlaGDv-61">
          <mxGeometry y="30" width="140" height="30" as="geometry" />
        </mxCell>
        <mxCell id="OEbh8IiqhW5LueFlaGDv-63" value="location" style="text;strokeColor=none;fillColor=none;align=left;verticalAlign=middle;spacingLeft=4;spacingRight=4;overflow=hidden;points=[[0,0.5],[1,0.5]];portConstraint=eastwest;rotatable=0;whiteSpace=wrap;html=1;" vertex="1" parent="OEbh8IiqhW5LueFlaGDv-61">
          <mxGeometry y="60" width="140" height="30" as="geometry" />
        </mxCell>
        <mxCell id="OEbh8IiqhW5LueFlaGDv-64" value="seatMap" style="text;strokeColor=none;fillColor=none;align=left;verticalAlign=middle;spacingLeft=4;spacingRight=4;overflow=hidden;points=[[0,0.5],[1,0.5]];portConstraint=eastwest;rotatable=0;whiteSpace=wrap;html=1;" vertex="1" parent="OEbh8IiqhW5LueFlaGDv-61">
          <mxGeometry y="90" width="140" height="30" as="geometry" />
        </mxCell>
        <mxCell id="OEbh8IiqhW5LueFlaGDv-68" value="Performer" style="swimlane;fontStyle=0;childLayout=stackLayout;horizontal=1;startSize=30;horizontalStack=0;resizeParent=1;resizeParentMax=0;resizeLast=0;collapsible=1;marginBottom=0;whiteSpace=wrap;html=1;" vertex="1" parent="1">
          <mxGeometry x="1350" y="80" width="140" height="90" as="geometry" />
        </mxCell>
        <mxCell id="OEbh8IiqhW5LueFlaGDv-69" value="id" style="text;strokeColor=none;fillColor=none;align=left;verticalAlign=middle;spacingLeft=4;spacingRight=4;overflow=hidden;points=[[0,0.5],[1,0.5]];portConstraint=eastwest;rotatable=0;whiteSpace=wrap;html=1;" vertex="1" parent="OEbh8IiqhW5LueFlaGDv-68">
          <mxGeometry y="30" width="140" height="30" as="geometry" />
        </mxCell>
        <mxCell id="OEbh8IiqhW5LueFlaGDv-70" value="..." style="text;strokeColor=none;fillColor=none;align=left;verticalAlign=middle;spacingLeft=4;spacingRight=4;overflow=hidden;points=[[0,0.5],[1,0.5]];portConstraint=eastwest;rotatable=0;whiteSpace=wrap;html=1;" vertex="1" parent="OEbh8IiqhW5LueFlaGDv-68">
          <mxGeometry y="60" width="140" height="30" as="geometry" />
        </mxCell>
        <mxCell id="OEbh8IiqhW5LueFlaGDv-72" value="Ticket" style="swimlane;fontStyle=0;childLayout=stackLayout;horizontal=1;startSize=30;horizontalStack=0;resizeParent=1;resizeParentMax=0;resizeLast=0;collapsible=1;marginBottom=0;whiteSpace=wrap;html=1;" vertex="1" parent="1">
          <mxGeometry x="1180" y="250" width="140" height="210" as="geometry" />
        </mxCell>
        <mxCell id="OEbh8IiqhW5LueFlaGDv-73" value="id" style="text;strokeColor=none;fillColor=none;align=left;verticalAlign=middle;spacingLeft=4;spacingRight=4;overflow=hidden;points=[[0,0.5],[1,0.5]];portConstraint=eastwest;rotatable=0;whiteSpace=wrap;html=1;" vertex="1" parent="OEbh8IiqhW5LueFlaGDv-72">
          <mxGeometry y="30" width="140" height="30" as="geometry" />
        </mxCell>
        <mxCell id="OEbh8IiqhW5LueFlaGDv-74" value="eventId" style="text;strokeColor=none;fillColor=none;align=left;verticalAlign=middle;spacingLeft=4;spacingRight=4;overflow=hidden;points=[[0,0.5],[1,0.5]];portConstraint=eastwest;rotatable=0;whiteSpace=wrap;html=1;" vertex="1" parent="OEbh8IiqhW5LueFlaGDv-72">
          <mxGeometry y="60" width="140" height="30" as="geometry" />
        </mxCell>
        <mxCell id="OEbh8IiqhW5LueFlaGDv-75" value="seat" style="text;strokeColor=none;fillColor=none;align=left;verticalAlign=middle;spacingLeft=4;spacingRight=4;overflow=hidden;points=[[0,0.5],[1,0.5]];portConstraint=eastwest;rotatable=0;whiteSpace=wrap;html=1;" vertex="1" parent="OEbh8IiqhW5LueFlaGDv-72">
          <mxGeometry y="90" width="140" height="30" as="geometry" />
        </mxCell>
        <mxCell id="OEbh8IiqhW5LueFlaGDv-76" value="price" style="text;strokeColor=none;fillColor=none;align=left;verticalAlign=middle;spacingLeft=4;spacingRight=4;overflow=hidden;points=[[0,0.5],[1,0.5]];portConstraint=eastwest;rotatable=0;whiteSpace=wrap;html=1;" vertex="1" parent="OEbh8IiqhW5LueFlaGDv-72">
          <mxGeometry y="120" width="140" height="30" as="geometry" />
        </mxCell>
        <mxCell id="OEbh8IiqhW5LueFlaGDv-79" value="status (Available, Reserved, Booked)" style="text;strokeColor=none;fillColor=none;align=left;verticalAlign=middle;spacingLeft=4;spacingRight=4;overflow=hidden;points=[[0,0.5],[1,0.5]];portConstraint=eastwest;rotatable=0;whiteSpace=wrap;html=1;" vertex="1" parent="OEbh8IiqhW5LueFlaGDv-72">
          <mxGeometry y="150" width="140" height="30" as="geometry" />
        </mxCell>
        <mxCell id="OEbh8IiqhW5LueFlaGDv-82" value="userId" style="text;strokeColor=none;fillColor=none;align=left;verticalAlign=middle;spacingLeft=4;spacingRight=4;overflow=hidden;points=[[0,0.5],[1,0.5]];portConstraint=eastwest;rotatable=0;whiteSpace=wrap;html=1;" vertex="1" parent="OEbh8IiqhW5LueFlaGDv-72">
          <mxGeometry y="180" width="140" height="30" as="geometry" />
        </mxCell>
        <mxCell id="OEbh8IiqhW5LueFlaGDv-77" value="Select * from DB where type in []&amp;nbsp;&lt;div&gt;AND name like &#39;%term%&#39;&lt;/div&gt;" style="text;html=1;align=center;verticalAlign=middle;resizable=0;points=[];autosize=1;strokeColor=none;fillColor=none;" vertex="1" parent="1">
          <mxGeometry x="690" y="60" width="200" height="40" as="geometry" />
        </mxCell>
        <mxCell id="OEbh8IiqhW5LueFlaGDv-80" value="Stripe" style="html=1;whiteSpace=wrap;strokeColor=none;fillColor=#0079D6;labelPosition=center;verticalLabelPosition=middle;verticalAlign=top;align=center;fontSize=12;outlineConnect=0;spacingTop=-6;fontColor=#FFFFFF;sketch=0;shape=mxgraph.sitemap.payment;" vertex="1" parent="1">
          <mxGeometry x="674" y="560" width="60" height="40" as="geometry" />
        </mxCell>
        <mxCell id="OEbh8IiqhW5LueFlaGDv-83" style="edgeStyle=orthogonalEdgeStyle;rounded=0;orthogonalLoop=1;jettySize=auto;html=1;entryX=0.5;entryY=0;entryDx=0;entryDy=0;entryPerimeter=0;startArrow=classicThin;startFill=1;" edge="1" parent="1" source="OEbh8IiqhW5LueFlaGDv-5" target="OEbh8IiqhW5LueFlaGDv-80">
          <mxGeometry relative="1" as="geometry" />
        </mxCell>
        <mxCell id="OEbh8IiqhW5LueFlaGDv-84" style="edgeStyle=orthogonalEdgeStyle;rounded=0;orthogonalLoop=1;jettySize=auto;html=1;exitX=1;exitY=0.5;exitDx=0;exitDy=0;entryX=0;entryY=0;entryDx=0;entryDy=27.5;entryPerimeter=0;startArrow=classicThin;startFill=1;" edge="1" parent="1" source="OEbh8IiqhW5LueFlaGDv-19" target="OEbh8IiqhW5LueFlaGDv-23">
          <mxGeometry relative="1" as="geometry" />
        </mxCell>
        <mxCell id="OEbh8IiqhW5LueFlaGDv-85" value="" style="image;sketch=0;aspect=fixed;html=1;points=[];align=center;fontSize=12;image=img/lib/mscae/Cache_Redis_Product.svg;" vertex="1" parent="1">
          <mxGeometry x="880" y="518" width="50" height="42" as="geometry" />
        </mxCell>
        <mxCell id="OEbh8IiqhW5LueFlaGDv-86" value="Ticket Lock&amp;nbsp;&lt;div&gt;(Redis)&lt;/div&gt;" style="text;html=1;align=center;verticalAlign=middle;resizable=0;points=[];autosize=1;strokeColor=none;fillColor=none;" vertex="1" parent="1">
          <mxGeometry x="865" y="560" width="90" height="40" as="geometry" />
        </mxCell>
        <mxCell id="OEbh8IiqhW5LueFlaGDv-89" value="{ticketId: true} TTL 10" style="text;html=1;align=center;verticalAlign=middle;resizable=0;points=[];autosize=1;strokeColor=none;fillColor=none;" vertex="1" parent="1">
          <mxGeometry x="850" y="600" width="140" height="30" as="geometry" />
        </mxCell>
        <mxCell id="OEbh8IiqhW5LueFlaGDv-90" style="edgeStyle=orthogonalEdgeStyle;rounded=0;orthogonalLoop=1;jettySize=auto;html=1;exitX=1;exitY=1;exitDx=0;exitDy=0;" edge="1" parent="1" source="OEbh8IiqhW5LueFlaGDv-5" target="OEbh8IiqhW5LueFlaGDv-85">
          <mxGeometry relative="1" as="geometry">
            <Array as="points">
              <mxPoint x="728" y="500" />
              <mxPoint x="900" y="500" />
            </Array>
          </mxGeometry>
        </mxCell>
        <mxCell id="OEbh8IiqhW5LueFlaGDv-95" value="" style="image;sketch=0;aspect=fixed;html=1;points=[];align=center;fontSize=12;image=img/lib/mscae/Cache_Redis_Product.svg;" vertex="1" parent="1">
          <mxGeometry x="490" y="498" width="50" height="42" as="geometry" />
        </mxCell>
        <mxCell id="OEbh8IiqhW5LueFlaGDv-96" value="Virtual Waiting queue" style="text;html=1;align=center;verticalAlign=middle;resizable=0;points=[];autosize=1;strokeColor=none;fillColor=none;" vertex="1" parent="1">
          <mxGeometry x="460" y="540" width="140" height="30" as="geometry" />
        </mxCell>
        <mxCell id="OEbh8IiqhW5LueFlaGDv-97" style="edgeStyle=orthogonalEdgeStyle;rounded=0;orthogonalLoop=1;jettySize=auto;html=1;entryX=0.063;entryY=0.708;entryDx=0;entryDy=0;entryPerimeter=0;" edge="1" parent="1" source="OEbh8IiqhW5LueFlaGDv-95" target="OEbh8IiqhW5LueFlaGDv-5">
          <mxGeometry relative="1" as="geometry" />
        </mxCell>
      </root>
    </mxGraphModel>
  </diagram>
</mxfile>
